<svg xmlns="http://www.w3.org/2000/svg" xml:space="preserve" version="1.1" style="shape-rendering:geometricPrecision; text-rendering:geometricPrecision; image-rendering:optimizeQuality; fill-rule:evenodd; clip-rule:evenodd" viewBox="0 0 2561 525" xmlns:xlink="http://www.w3.org/1999/xlink"><defs><style type="text/css">
             
              .fil0 {fill:#2B2A29}
              .fil1 {fill:#D81E05}
              .fil2 {fill:#2B2A29;fill-rule:nonzero}
             
            </style></defs><g id="Слой_x0020_1"><metadata id="CorelCorpID_0Corel-Layer"/><g id="_2712940915424"><path class="fil0" d="M1054 170c51,0 92,42 92,93 0,51 -41,92 -92,92 -51,0 -92,-41 -92,-92 0,-51 41,-93 92,-93zm0 -63c86,0 156,70 156,156 0,86 -70,155 -156,155 -86,0 -156,-69 -156,-155 0,-86 70,-156 156,-156zm-433 5l27 0 8 0 27 0c9,0 22,8 27,18l93 155 0 -155c0,-10 8,-18 17,-18l35 0c10,0 18,8 18,18l0 260c0,4 -2,9 -6,12 -1,3 -4,5 -9,5l-3 0 -32 0 -3 0c-4,0 -9,-2 -12,-5 -5,-3 -10,-8 -13,-12l-122 -206 0 206c0,9 -8,17 -17,17l-35 0c-10,0 -18,-8 -18,-17l0 -260c0,-10 8,-18 18,-18zm753 134c21,-2 38,-19 38,-40 0,-22 -18,-38 -39,-40l-64 0 0 80 65 0 0 0zm-25 52l-40 0 0 92c0,9 -8,17 -18,17l-35 0c-9,0 -17,-8 -17,-17l0 -260c0,-10 8,-18 17,-18l127 1c51,1 91,49 91,92 0,43 -19,66 -48,81l77 104c7,9 5,17 -5,17l-50 0c-10,0 -24,-8 -31,-17l-68 -92 0 0zm496 -186l-11 0 -24 0c-10,0 -21,8 -24,18l-74 190 -74 -190c-4,-10 -15,-18 -25,-18l-24 0 -11 0 -24 0c-9,0 -17,8 -17,18l0 260c0,9 8,17 17,17l35 0c10,0 18,-8 18,-17l0 -161 62 161c4,9 15,17 24,17l2 0 33 0 2 0c9,0 20,-8 24,-17l63 -161 0 161c0,9 7,17 17,17l35 0c9,0 17,-8 17,-17l0 -260c0,-10 -8,-18 -17,-18l-24 0 0 0z"/><path class="fil1" d="M2001 348l129 0c6,0 12,6 12,13l0 34c0,6 -6,12 -12,12l-146 0 -34 0 -2 0c-3,0 -6,-1 -8,-3l0 0c-5,-3 -8,-8 -8,-14l0 -260c0,-6 3,-12 8,-15 2,-2 5,-3 8,-3l2 0 34 0 146 0c6,0 12,6 12,13l0 34c0,6 -6,12 -12,12l-129 0 0 49 119 0c6,0 12,6 12,12l0 34c0,7 -6,13 -12,13l-119 0 0 69z"/><path class="fil1" d="M2210 395l0 -5 0 -29 0 -231c0,-10 7,-18 17,-18l34 0c10,0 18,8 18,18l0 218 124 0c7,0 13,6 13,13l0 34c0,6 -6,12 -13,12l-142 0 -34 0 -5 0c-7,0 -12,-6 -12,-12l0 0z"/><path class="fil1" d="M123 254c16,-66 35,-127 61,-127 24,0 38,62 51,127l-112 0z"/><path class="fil1" d="M485 130c23,39 36,84 36,133 0,145 -117,262 -260,262 -79,0 -150,-35 -198,-91 23,-25 36,-79 50,-138 2,-8 4,-17 6,-25l119 0c17,89 35,176 98,176 61,0 88,-88 110,-176l48 0 0 -17 -44 0 3 -10c13,-54 25,-102 32,-114l0 0z"/><path class="fil1" d="M396 271c-17,66 -36,127 -60,127 -22,0 -35,-62 -48,-127l108 0z"/><path class="fil1" d="M261 0c79,0 149,35 197,91 -24,25 -38,81 -52,141 -2,7 -4,15 -6,22l-115 0c-18,-88 -36,-176 -101,-176 -63,0 -90,88 -111,176l-46 0 0 17 42 0 -4 14c-12,52 -23,99 -29,111 -23,-39 -36,-85 -36,-133 0,-145 117,-263 261,-263z"/><path class="fil2" d="M2436 54l51 0 0 12 -18 0 0 45 -15 0 0 -45 -18 0 0 -12 0 0zm60 0l19 0 14 40 14 -40 18 0 0 57 -12 0 0 -37 -14 37 -13 0 -13 -37 0 37 -13 0 0 -57z"/></g></g></svg>